<svg width="17" height="12" viewBox="0 0 17 12" fill="none" xmlns="http://www.w3.org/2000/svg">
<path d="M16.2502 3.96875C16.3752 3.875 16.5627 3.96875 16.5627 4.125V10.5C16.5627 11.3438 15.8752 12 15.0627 12H2.06269C1.21894 12 0.562695 11.3438 0.562695 10.5V4.125C0.562695 3.96875 0.718945 3.875 0.843945 3.96875C1.56269 4.53125 2.46894 5.21875 5.65644 7.53125C6.31269 8 7.43769 9.03125 8.56269 9.03125C9.65644 9.03125 10.8127 8 11.4377 7.53125C14.6252 5.21875 15.5314 4.53125 16.2502 3.96875ZM8.56269 8C7.81269 8.03125 6.78144 7.09375 6.25019 6.71875C2.09394 3.71875 1.78144 3.4375 0.843945 2.6875C0.656445 2.5625 0.562695 2.34375 0.562695 2.09375V1.5C0.562695 0.6875 1.21894 0 2.06269 0H15.0627C15.8752 0 16.5627 0.6875 16.5627 1.5V2.09375C16.5627 2.34375 16.4377 2.5625 16.2502 2.6875C15.3127 3.4375 15.0002 3.71875 10.8439 6.71875C10.3127 7.09375 9.28144 8.03125 8.56269 8Z" fill="#F05F5F"/>
</svg>
